<!--?xml version="1.0" standalone="no"?-->
              <svg id="sw-js-blob-svg" viewBox="0 0 100 100" xmlns="http://www.w3.org/2000/svg" version="1.1">
                    <defs> 
                        <linearGradient id="sw-gradient" x1="0" x2="1" y1="1" y2="0">
                            <stop id="stop1" stop-color="rgba(0, 110, 255, 1)" offset="0%"></stop>
                            <stop id="stop2" stop-color="rgba(0, 225.195, 255, 1)" offset="100%"></stop>
                        </linearGradient>
                    </defs>
                <path fill="url(#sw-gradient)" d="M19.2,-19.4C26.5,-16.7,35.4,-12.2,36,-6.6C36.6,-1.1,29.1,5.7,24,13.4C19,21,16.5,29.7,10.1,35.1C3.8,40.5,-6.3,42.7,-12.1,38.4C-18,34,-19.6,23.1,-23.9,14.4C-28.2,5.7,-35.1,-0.9,-34.1,-5.9C-33,-10.9,-24,-14.4,-17,-17.2C-10,-20.1,-5,-22.3,0.5,-22.8C5.9,-23.4,11.8,-22.2,19.2,-19.4Z" width="100%" height="100%" transform="translate(50 50)" stroke-width="0" style="transition: all 0.3s ease 0s;"></path>
              </svg>