<!--?xml version="1.0" standalone="no"?-->
              <svg id="sw-js-blob-svg" viewBox="0 0 100 100" xmlns="http://www.w3.org/2000/svg" version="1.1">
                    <defs> 
                        <linearGradient id="sw-gradient" x1="0" x2="1" y1="1" y2="0">
                            <stop id="stop1" stop-color="rgba(0, 110, 255, 1)" offset="0%"></stop>
                            <stop id="stop2" stop-color="rgba(0, 225.195, 255, 1)" offset="100%"></stop>
                        </linearGradient>
                    </defs>
                <path fill="url(#sw-gradient)" d="M26.9,-30.5C34,-26,38.4,-16.8,39.7,-7.3C41,2.2,39.2,11.9,34.6,20C29.9,28.1,22.5,34.6,14.3,36.3C6.2,37.9,-2.6,34.6,-12,31.7C-21.5,28.9,-31.6,26.5,-37.7,19.8C-43.8,13.2,-46,2.4,-42.6,-5.9C-39.1,-14.1,-30.2,-19.6,-22.1,-24C-14.1,-28.3,-7.1,-31.3,1.4,-33C9.9,-34.7,19.7,-35,26.9,-30.5Z" width="100%" height="100%" transform="translate(50 50)" stroke-width="0" style="transition: all 0.3s ease 0s;"></path>
              </svg>